<svg width="40" height="40" viewBox="0 0 40 40" fill="none" xmlns="http://www.w3.org/2000/svg">
<g filter="url(#filter0_b_1037_136)">
<rect width="40" height="40" rx="20" fill="url(#paint0_linear_1037_136)" fill-opacity="0.08"/>
<path d="M17 28V23C17 22.4477 17.4477 22 18 22H20" stroke="white" stroke-width="1.5" stroke-linecap="round" stroke-linejoin="round"/>
<path fill-rule="evenodd" clip-rule="evenodd" d="M25.7739 23.1575L26 23.3871L26.2261 23.1574C26.6376 22.737 27.201 22.5 27.7893 22.5C28.3776 22.5 28.9411 22.737 29.3525 23.1574V23.1574C30.2158 24.0395 30.2158 25.4499 29.3525 26.3319L27.2374 28.4796C26.9117 28.8124 26.4657 29 26 29C25.5343 29 25.0882 28.8124 24.7625 28.4796L22.6475 26.332C21.7842 25.4499 21.7842 24.0396 22.6475 23.1575V23.1575C23.0589 22.737 23.6224 22.5 24.2107 22.5C24.799 22.5 25.3625 22.737 25.7739 23.1575Z" stroke="white" stroke-width="1.5" stroke-linecap="round" stroke-linejoin="round"/>
<path d="M11 18.5803L18.6984 11.9815C19.4474 11.3395 20.5526 11.3395 21.3016 11.9815L29 18.5803" stroke="white" stroke-width="1.5" stroke-linecap="round" stroke-linejoin="round"/>
<path d="M12.2855 17.4784V28" stroke="white" stroke-width="1.5" stroke-linecap="round" stroke-linejoin="round"/>
<path d="M20 28H11" stroke="white" stroke-width="1.5" stroke-linecap="round" stroke-linejoin="round"/>
<path d="M23.6235 13.9718V11.75C23.6235 11.3358 23.9593 11 24.3735 11H26.9644C27.3787 11 27.7144 11.3358 27.7144 11.75V17.4784" stroke="white" stroke-width="1.5" stroke-linecap="round" stroke-linejoin="round"/>
<rect x="0.5" y="0.5" width="39" height="39" rx="19.5" stroke="url(#paint1_linear_1037_136)" stroke-opacity="0.08"/>
</g>
<defs>
<filter id="filter0_b_1037_136" x="-40" y="-40" width="120" height="120" filterUnits="userSpaceOnUse" color-interpolation-filters="sRGB">
<feFlood flood-opacity="0" result="BackgroundImageFix"/>
<feGaussianBlur in="BackgroundImageFix" stdDeviation="20"/>
<feComposite in2="SourceAlpha" operator="in" result="effect1_backgroundBlur_1037_136"/>
<feBlend mode="normal" in="SourceGraphic" in2="effect1_backgroundBlur_1037_136" result="shape"/>
</filter>
<linearGradient id="paint0_linear_1037_136" x1="29" y1="37.5" x2="9" y2="3" gradientUnits="userSpaceOnUse">
<stop stop-color="white"/>
<stop offset="1" stop-color="white" stop-opacity="0.46"/>
</linearGradient>
<linearGradient id="paint1_linear_1037_136" x1="1.5" y1="3.76254e-07" x2="38" y2="40" gradientUnits="userSpaceOnUse">
<stop stop-color="white"/>
<stop offset="1" stop-color="white" stop-opacity="0"/>
</linearGradient>
</defs>
</svg>
