<svg width="40" height="40" viewBox="0 0 40 40" fill="none" xmlns="http://www.w3.org/2000/svg">
<rect width="40" height="40" rx="4" fill="url(#paint0_linear_536_549)" fill-opacity="0.08"/>
<path fill-rule="evenodd" clip-rule="evenodd" d="M15.5 11H24.504C26.987 11 29 13.013 29 15.496V24.505C29 26.987 26.987 29 24.504 29H15.496C13.013 29 11 26.987 11 24.504V15.5C11 13.015 13.015 11 15.5 11V11Z" stroke="#A8A8AA" stroke-width="1.5" stroke-linecap="round" stroke-linejoin="round"/>
<path d="M16.12 19.1V24.5" stroke="#A8A8AA" stroke-width="1.5" stroke-linecap="round" stroke-linejoin="round"/>
<path d="M19.719 24.5V21.35C19.719 20.107 20.726 19.1 21.969 19.1V19.1C23.212 19.1 24.219 20.107 24.219 21.35V24.5" stroke="#A8A8AA" stroke-width="1.5" stroke-linecap="round" stroke-linejoin="round"/>
<path d="M16.118 15.838C15.994 15.838 15.893 15.939 15.894 16.063C15.894 16.187 15.995 16.288 16.119 16.288C16.243 16.288 16.344 16.187 16.344 16.063C16.344 15.938 16.243 15.838 16.118 15.838" stroke="#A8A8AA" stroke-width="1.5" stroke-linecap="round" stroke-linejoin="round"/>
<rect x="0.5" y="0.5" width="39" height="39" rx="3.5" stroke="url(#paint1_linear_536_549)" stroke-opacity="0.08"/>
<defs>
<linearGradient id="paint0_linear_536_549" x1="29" y1="37.5" x2="9" y2="3" gradientUnits="userSpaceOnUse">
<stop stop-color="white"/>
<stop offset="1" stop-color="white" stop-opacity="0.46"/>
</linearGradient>
<linearGradient id="paint1_linear_536_549" x1="1.5" y1="3.76254e-07" x2="38" y2="40" gradientUnits="userSpaceOnUse">
<stop stop-color="white"/>
<stop offset="1" stop-color="white" stop-opacity="0"/>
</linearGradient>
</defs>
</svg>
