<svg width="54" height="48" viewBox="0 0 54 48" fill="none" xmlns="http://www.w3.org/2000/svg">
<g clip-path="url(#clip0_619_3726)">
<path d="M26.9772 43.9491C22.3167 43.7857 17.5215 41.4529 13.7712 38.2587C9.76897 34.8499 6.92818 30.4285 6.67052 26.5734C6.67052 17.7157 6.6535 8.85779 6.64648 0H47.3526C47.3438 8.85013 47.3283 17.7009 47.3283 26.551C47.1876 30.4041 44.6029 34.7503 40.6296 38.1341C37.0047 41.2215 32.2084 43.5317 27.0548 43.9491L27.0314 43.951L26.9772 43.9491ZM14.6861 37.1712C18.2043 40.1677 22.6665 42.358 26.9695 42.5252C31.7991 42.1277 36.3027 39.9526 39.7147 37.0467C43.3961 33.9114 45.7886 29.9525 45.9146 26.5009L45.9374 1.42743H8.06136L8.0842 26.4785C8.31588 29.9453 10.9577 33.9958 14.6861 37.1712Z" fill="#767579"/>
<path d="M26.9828 41.625C22.8185 41.4789 18.5304 39.3916 15.1749 36.5336C11.5971 33.4864 9.05788 29.5391 8.82814 26.1022C8.82814 18.1765 8.81291 10.2506 8.80664 2.32495H45.1924C45.1841 10.245 45.1708 18.1654 45.1708 26.0855C45.0454 29.5196 42.7357 33.398 39.1854 36.4219C35.942 39.1843 31.6508 41.2517 27.041 41.625H26.9828ZM15.861 35.7183C19.0422 38.4278 23.0806 40.4082 26.977 40.5571C31.3442 40.1986 35.4159 38.2328 38.4993 35.6066C41.8307 32.769 43.9961 29.181 44.1105 26.0478L44.1312 3.39553H9.86772L9.88847 26.031C10.0987 29.177 12.4888 32.8461 15.861 35.7183Z" fill="#767579"/>
<path d="M15.6006 30.9958L21.8076 31.0153L20.7987 30.3007C19.5796 29.2176 19.4692 28.0796 20.1318 26.5154C20.6133 25.3787 26.0076 12.4405 26.3056 12.0005C26.318 12.0162 26.334 12.0219 26.3387 12.0502L26.8287 13.1671C27.6721 15.1563 32.0068 25.3606 32.1666 26.5271C32.4204 28.3778 31.5562 30.6467 30.1855 31.2432C31.3048 31.2327 33.5767 30.0417 34.4981 28.8312C36.7142 25.9196 35.0867 23.4445 33.7336 20.175L28.3561 7.16675L26.9841 7.17065C26.7075 7.58441 19.6311 24.4945 19.1466 25.6758C18.6838 26.8043 18.0904 28.4338 17.4143 29.3927C17.2312 29.6525 17.0791 29.7812 16.8756 29.9885C16.2016 30.6757 15.8515 30.7113 15.6006 30.9958ZM28.0453 31.2753C27.6794 30.9395 26.7734 30.1793 26.6958 29.45C26.5871 28.4293 27.9325 28.8313 28.5829 28.1137C29.1325 27.5072 29.1009 26.4606 28.6747 25.716C28.4872 25.3884 28.2125 25.1147 27.8784 24.925C25.9827 23.8479 23.4945 25.7225 24.3871 28.5105C24.8274 29.8866 26.3029 31.1417 28.0453 31.2753Z" fill="#767579"/>
<path d="M50.6826 21.6518C54.058 29.9021 52.1415 37.6204 42.3532 42.3087C41.3829 42.773 40.4277 43.1857 39.5202 43.5734C36.0739 45.0431 33.6542 46.0362 32.2549 47.8947L32.4009 47.9999C33.8583 46.0573 36.7545 44.9352 39.5844 43.7204C40.4917 43.3303 41.4481 42.9145 42.4213 42.4459C52.1324 37.7661 54.2488 30.038 50.7644 21.6076L50.6826 21.6518ZM48.1966 20.1709C49.051 21.6289 49.7297 22.6527 51.0751 22.9986C50.6478 22.0448 50.4463 20.8001 48.1966 20.1709ZM49.3192 22.9346C49.9646 24.417 50.4948 25.5903 51.8249 26.1037C51.5416 25.1651 51.5568 23.8106 49.3192 22.9346ZM50.0055 25.7853C50.1176 26.1996 50.4887 27.7931 51.187 28.6257C51.2508 28.7027 51.322 28.7783 51.4023 28.8523C51.5644 29.0009 51.7552 29.1435 52.0006 29.2833C51.8931 28.3318 52.1324 26.9049 50.0055 25.7853ZM50.1765 28.629C50.3448 30.4219 50.4811 31.5597 51.5159 32.4194C51.5219 32.3583 51.5431 32.2312 51.5704 32.0634C51.5854 31.9796 51.5946 31.8841 51.6066 31.7821C51.6113 31.731 51.6174 31.6779 51.6234 31.6235C51.628 31.5692 51.6295 31.5127 51.6325 31.4558C51.6583 30.9988 51.6174 30.4707 51.4401 30.0839C51.1931 29.5411 50.7538 29.0464 50.1765 28.629ZM49.7721 31.3681C49.6812 32.4129 49.4146 33.9649 50.1009 35.0273C50.1674 35.1311 50.2448 35.2382 50.3342 35.3493C50.3842 35.1999 50.978 33.963 50.7553 33.0304C50.6175 32.4476 50.2721 31.8795 49.7721 31.3681ZM48.795 33.8785C48.1178 35.9007 47.9042 36.7901 48.4601 37.8791C48.4919 37.8246 48.5722 37.7179 48.6752 37.5753C48.7738 37.4283 48.8995 37.2487 49.0101 37.0408C49.5388 36.0882 49.6494 35.1607 48.795 33.8785ZM47.2619 35.9959C46.209 37.6914 45.6317 38.626 46.0484 39.9165C46.7331 39.1735 48.1284 38.3035 47.2619 35.9959ZM45.2151 37.7365C43.9853 39.0321 42.9878 40.0557 43.3144 41.5309C43.4162 41.4462 43.7753 41.2094 44.1485 40.8852C44.9486 40.1932 45.4863 39.4053 45.2151 37.7365ZM42.757 39.1575C41.3123 40.3017 40.1194 41.3369 40.4154 42.8708C40.524 42.7891 40.9063 42.5684 41.3135 42.2651C42.1928 41.611 42.7981 40.914 42.757 39.1575ZM40.0061 40.3623C38.5729 41.3334 37.0611 42.4689 37.4509 44.1192C38.5027 43.297 39.8861 42.9823 40.0061 40.3623ZM48.2829 17.2593C49.957 18.3578 50.7371 20.4603 50.569 21.2313C49.2419 20.1328 48.533 17.852 48.2829 17.2593ZM51.0219 19.0023C51.6234 19.9209 52.0582 21.4704 51.3765 22.9758C51.1113 22.1043 50.2994 20.2318 51.0219 19.0023ZM52.4096 21.7462C52.9051 22.866 53.0414 24.6242 52.1203 25.8111C51.993 24.8985 51.5159 22.898 52.4096 21.7462ZM53.4307 24.6943C53.7503 26.0016 53.5383 27.8466 52.3975 28.7359C52.4369 28.0431 52.3127 25.7776 53.4307 24.6943ZM53.9942 27.8263C54.0654 29.2632 53.4519 31.1153 52.1309 31.6695C52.3233 30.8981 52.6959 28.7272 53.9942 27.8263ZM53.9912 31.0751C53.8232 32.2051 52.8913 34.3143 51.2779 34.495C51.6855 33.6717 52.4855 31.761 53.9912 31.0751ZM53.3459 34.3089C52.7792 35.745 51.3038 37.3564 49.816 37.0659C50.3933 36.4014 51.634 34.6956 53.3459 34.3089ZM51.984 37.4097C51.0113 38.7038 49.2116 39.9574 47.8179 39.2427C48.5586 38.706 50.0767 37.3957 51.984 37.4097ZM49.954 40.1265C48.7026 41.1566 46.6862 42.0231 45.4605 41.0066C46.3181 40.5995 47.939 39.632 49.954 40.1265ZM47.4861 42.3342C46.0333 43.1066 43.9872 43.6696 42.9023 42.44C43.2096 42.3372 44.0089 42.0413 44.6774 41.9201C45.6031 41.7401 46.6574 41.9535 47.4861 42.3342ZM44.8228 44.0957C43.7633 44.476 42.5627 44.7607 41.4449 44.4925C41.0142 44.3896 40.6008 44.1482 40.2566 43.6695C40.4386 43.6271 40.8583 43.5024 41.3432 43.4045C42.2025 43.2309 43.2471 43.077 44.8228 44.0957ZM42.1215 45.547C41.7751 45.6369 41.2365 45.7804 40.6301 45.8486C40.023 45.9173 39.3505 45.9118 38.716 45.7219C38.3112 45.6007 37.9423 45.3455 37.6018 44.8327C37.7379 44.8103 38.1685 44.6828 38.6799 44.5926C39.1912 44.5019 39.7822 44.4456 40.2346 44.5551C40.8686 44.709 41.4944 45.0568 42.1215 45.547Z" fill="#767579"/>
<path d="M3.31718 21.6518C-0.0581908 29.9021 1.85827 37.6204 11.6466 42.3087C12.6169 42.773 13.5721 43.1857 14.4796 43.5734C17.9259 45.0431 20.3455 46.0362 21.7449 47.8947L21.5989 47.9999C20.1415 46.0573 17.2453 44.9352 14.4154 43.7204C13.5081 43.3303 12.5516 42.9145 11.5785 42.4459C1.86737 37.7661 -0.248971 30.038 3.23537 21.6076L3.31718 21.6518ZM5.80329 20.1709C4.94881 21.6289 4.27003 22.6527 2.92487 22.9986C3.35196 22.0448 3.55349 20.8001 5.80329 20.1709ZM4.6807 22.9346C4.03521 24.417 3.50512 25.5903 2.17489 26.1037C2.45822 25.1651 2.44299 23.8106 4.6807 22.9346ZM3.99431 25.7853C3.8822 26.1996 3.51109 27.7931 2.81276 28.6257C2.74902 28.7027 2.67781 28.7783 2.5975 28.8523C2.43553 29.0009 2.2446 29.1435 1.99919 29.2833C2.10667 28.3318 1.86737 26.9049 3.99431 25.7853ZM3.82324 28.629C3.655 30.4219 3.51871 31.5597 2.4839 32.4194C2.47793 32.3583 2.45673 32.2312 2.42941 32.0634C2.41433 31.9796 2.40523 31.8841 2.39313 31.7821C2.38851 31.731 2.38253 31.6779 2.37641 31.6235C2.37179 31.5692 2.37029 31.5127 2.36731 31.4558C2.34148 30.9988 2.38254 30.4707 2.55973 30.0839C2.80664 29.5411 3.24597 29.0464 3.82324 28.629ZM4.22764 31.3681C4.31855 32.4129 4.58516 33.9649 3.89892 35.0273C3.83234 35.1311 3.75502 35.2382 3.6656 35.3493C3.61559 35.1999 3.02175 33.963 3.24448 33.0304C3.38226 32.4476 3.7277 31.8795 4.22764 31.3681ZM5.20482 33.8785C5.88196 35.9007 6.09558 36.7901 5.53966 37.8791C5.50786 37.8246 5.42755 37.7179 5.32455 37.5753C5.22602 37.4283 5.10033 37.2487 4.98971 37.0408C4.46096 36.0882 4.35035 35.1607 5.20482 33.8785ZM6.73793 35.9959C7.7908 37.6914 8.36806 38.626 7.95142 39.9165C7.26668 39.1735 5.87136 38.3035 6.73793 35.9959ZM8.78471 37.7365C10.0145 39.0321 11.012 40.0557 10.6853 41.5309C10.5835 41.4462 10.2247 41.2094 9.85131 40.8852C9.05132 40.1932 8.51346 39.4053 8.78471 37.7365ZM11.2428 39.1575C12.6875 40.3017 13.8805 41.3369 13.5844 42.8708C13.4758 42.7891 13.0935 42.5684 12.6863 42.2651C11.8072 41.611 11.2017 40.914 11.2428 39.1575ZM13.9937 40.3623C15.4269 41.3334 16.9387 42.4689 16.5489 44.1192C15.4971 43.297 14.1137 42.9823 13.9937 40.3623ZM5.71685 17.2593C4.04283 18.3578 3.26269 20.4603 3.43078 21.2313C4.75788 20.1328 5.46696 17.852 5.71685 17.2593ZM2.97786 19.0023C2.37642 19.9209 1.94156 21.4704 2.62333 22.9758C2.88845 22.1043 3.70038 20.2318 2.97786 19.0023ZM1.59016 21.7462C1.0947 22.866 0.958405 24.6242 1.87946 25.8111C2.0068 24.8985 2.4839 22.898 1.59016 21.7462ZM0.569083 24.6943C0.249475 26.0016 0.461453 27.8466 1.60225 28.7359C1.56284 28.0431 1.68704 25.7776 0.569083 24.6943ZM0.00555035 27.8263C-0.0656562 29.2632 0.547887 31.1153 1.86887 31.6695C1.67644 30.8981 1.30384 28.7272 0.00555035 27.8263ZM0.00853716 31.0751C0.176626 32.2051 1.10843 34.3143 2.72185 34.495C2.31432 33.6717 1.51447 31.761 0.00853716 31.0751ZM0.653875 34.3089C1.22054 35.745 2.69602 37.3564 4.18375 37.0659C3.60648 36.4014 2.36582 34.6956 0.653875 34.3089ZM2.01575 37.4097C2.98846 38.7038 4.78818 39.9574 6.18201 39.2427C5.44113 38.706 3.9231 37.3957 2.01575 37.4097ZM4.04581 40.1265C5.29723 41.1566 7.3137 42.0231 8.53929 41.0066C7.68168 40.5995 6.0608 39.632 4.04581 40.1265ZM6.51371 42.3342C7.96665 43.1066 10.0125 43.6696 11.0975 42.44C10.7901 42.3372 9.99089 42.0413 9.32241 41.9201C8.39673 41.7401 7.34236 41.9535 6.51371 42.3342ZM9.17701 44.0957C10.2365 44.476 11.4371 44.7607 12.5549 44.4925C12.9856 44.3896 13.399 44.1482 13.7432 43.6695C13.5612 43.6271 13.1414 43.5024 12.6566 43.4045C11.7973 43.2309 10.7527 43.077 9.17701 44.0957ZM11.8782 45.547C12.2247 45.6369 12.7633 45.7804 13.3697 45.8486C13.9768 45.9173 14.6493 45.9118 15.2838 45.7219C15.6886 45.6007 16.0575 45.3455 16.398 44.8327C16.2618 44.8103 15.8313 44.6828 15.3199 44.5926C14.8088 44.5019 14.2176 44.4456 13.7651 44.5551C13.1311 44.709 12.5054 45.0568 11.8782 45.547Z" fill="#767579"/>
<path d="M28.0454 31.2752C26.7677 30.7466 26.0137 29.9943 25.9878 28.7366C25.9619 27.4829 27.11 26.4532 28.7786 25.9204C28.7472 25.8503 28.7127 25.7818 28.6749 25.7159C28.4875 25.3885 28.2128 25.1145 27.8787 24.925C25.983 23.8478 23.4948 25.7223 24.3873 28.5104C24.8277 29.8865 26.3032 31.1414 28.0454 31.2752Z" fill="#767579"/>
</g>
<defs>
<clipPath id="clip0_619_3726">
<rect width="54" height="48" fill="white"/>
</clipPath>
</defs>
</svg>
