<svg width="54" height="48" viewBox="0 0 54 48" fill="none" xmlns="http://www.w3.org/2000/svg">
<path d="M26.9777 43.9491C22.3172 43.7857 17.522 41.4529 13.7717 38.2587C9.76946 34.8499 6.92866 30.4285 6.67101 26.5734C6.67101 17.7157 6.65399 8.85779 6.64697 0H47.3531C47.3443 8.85013 47.3288 17.7009 47.3288 26.551C47.1881 30.4041 44.6034 34.7503 40.6301 38.1341C37.0051 41.2215 32.2089 43.5317 27.0553 43.9491L27.0319 43.951L26.9777 43.9491ZM14.6866 37.1712C18.2048 40.1677 22.667 42.358 26.9699 42.5252C31.7996 42.1277 36.3032 39.9526 39.7152 37.0467C43.3966 33.9114 45.7891 29.9525 45.9151 26.5009L45.9379 1.42743H8.06185L8.08469 26.4785C8.31637 29.9453 10.9582 33.9958 14.6866 37.1712Z" fill="#8257E5"/>
<path d="M26.9833 41.625C22.819 41.4789 18.5309 39.3916 15.1754 36.5336C11.5976 33.4864 9.05837 29.5391 8.82863 26.1022C8.82863 18.1765 8.8134 10.2506 8.80713 2.32495H45.1929C45.1846 10.245 45.1713 18.1654 45.1713 26.0855C45.0459 29.5196 42.7362 33.398 39.1859 36.4219C35.9425 39.1843 31.6513 41.2517 27.0415 41.625H26.9833ZM15.8615 35.7183C19.0427 38.4278 23.0811 40.4082 26.9775 40.5571C31.3447 40.1986 35.4164 38.2328 38.4998 35.6066C41.8311 32.769 43.9966 29.181 44.111 26.0478L44.1317 3.39553H9.86821L9.88896 26.031C10.0991 29.177 12.4893 32.8461 15.8615 35.7183Z" fill="#8257E5"/>
<path d="M15.6007 30.9958L21.8078 31.0153L20.7988 30.3007C19.5798 29.2176 19.4693 28.0796 20.132 26.5154C20.6134 25.3787 26.0078 12.4405 26.3057 12.0005C26.3181 12.0162 26.3341 12.0219 26.3389 12.0502L26.8288 13.1671C27.6722 15.1563 32.0069 25.3606 32.1668 26.5271C32.4205 28.3778 31.5563 30.6467 30.1857 31.2432C31.305 31.2327 33.5769 30.0417 34.4982 28.8312C36.7143 25.9196 35.0868 23.4445 33.7337 20.175L28.3562 7.16675L26.9842 7.17065C26.7076 7.58441 19.6313 24.4945 19.1467 25.6758C18.6839 26.8043 18.0905 28.4338 17.4145 29.3927C17.2313 29.6525 17.0792 29.7812 16.8757 29.9885C16.2017 30.6757 15.8516 30.7113 15.6007 30.9958ZM28.0454 31.2753C27.6795 30.9395 26.7736 30.1793 26.6959 29.45C26.5873 28.4293 27.9326 28.8313 28.583 28.1137C29.1326 27.5072 29.101 26.4606 28.6748 25.716C28.4873 25.3884 28.2126 25.1147 27.8785 24.925C25.9828 23.8479 23.4946 25.7225 24.3872 28.5105C24.8276 29.8866 26.303 31.1417 28.0454 31.2753Z" fill="#8257E5"/>
<path d="M50.6828 21.6518C54.0582 29.9021 52.1418 37.6204 42.3535 42.3087C41.3832 42.773 40.4279 43.1857 39.5204 43.5734C36.0742 45.0431 33.6545 46.0362 32.2551 47.8947L32.4011 47.9999C33.8585 46.0573 36.7547 44.9352 39.5846 43.7204C40.4919 43.3303 41.4484 42.9145 42.4215 42.4459C52.1327 37.7661 54.249 30.038 50.7647 21.6076L50.6828 21.6518ZM48.1969 20.1709C49.0512 21.6289 49.73 22.6527 51.0753 22.9986C50.6481 22.0448 50.4465 20.8001 48.1969 20.1709ZM49.3195 22.9346C49.9648 24.417 50.4951 25.5903 51.8251 26.1037C51.5418 25.1651 51.557 23.8106 49.3195 22.9346ZM50.0057 25.7853C50.1178 26.1996 50.4889 27.7931 51.1873 28.6257C51.251 28.7027 51.3222 28.7783 51.4025 28.8523C51.5646 29.0009 51.7554 29.1435 52.0008 29.2833C51.8934 28.3318 52.1327 26.9049 50.0057 25.7853ZM50.1768 28.629C50.345 30.4219 50.4813 31.5597 51.5161 32.4194C51.5221 32.3583 51.5433 32.2312 51.5706 32.0634C51.5857 31.9796 51.5948 31.8841 51.6069 31.7821C51.6115 31.731 51.6176 31.6779 51.6236 31.6235C51.6282 31.5692 51.6297 31.5127 51.6327 31.4558C51.6585 30.9988 51.6176 30.4707 51.4403 30.0839C51.1934 29.5411 50.7541 29.0464 50.1768 28.629ZM49.7724 31.3681C49.6815 32.4129 49.4149 33.9649 50.1011 35.0273C50.1677 35.1311 50.245 35.2382 50.3344 35.3493C50.3844 35.1999 50.9783 33.963 50.7555 33.0304C50.6178 32.4476 50.2723 31.8795 49.7724 31.3681ZM48.7952 33.8785C48.1181 35.9007 47.9044 36.7901 48.4604 37.8791C48.4922 37.8246 48.5725 37.7179 48.6755 37.5753C48.774 37.4283 48.8997 37.2487 49.0103 37.0408C49.5391 36.0882 49.6497 35.1607 48.7952 33.8785ZM47.2621 35.9959C46.2092 37.6914 45.632 38.626 46.0486 39.9165C46.7333 39.1735 48.1287 38.3035 47.2621 35.9959ZM45.2153 37.7365C43.9855 39.0321 42.9881 40.0557 43.3147 41.5309C43.4165 41.4462 43.7755 41.2094 44.1487 40.8852C44.9489 40.1932 45.4866 39.4053 45.2153 37.7365ZM42.7573 39.1575C41.3125 40.3017 40.1196 41.3369 40.4157 42.8708C40.5242 42.7891 40.9065 42.5684 41.3137 42.2651C42.193 41.611 42.7983 40.914 42.7573 39.1575ZM40.0063 40.3623C38.5731 41.3334 37.0613 42.4689 37.4511 44.1192C38.5029 43.297 39.8863 42.9823 40.0063 40.3623ZM48.2832 17.2593C49.9572 18.3578 50.7373 20.4603 50.5692 21.2313C49.2421 20.1328 48.5332 17.852 48.2832 17.2593ZM51.0222 19.0023C51.6236 19.9209 52.0585 21.4704 51.3767 22.9758C51.1116 22.1043 50.2996 20.2318 51.0222 19.0023ZM52.4099 21.7462C52.9053 22.866 53.0416 24.6242 52.1206 25.8111C51.9932 24.8985 51.5161 22.898 52.4099 21.7462ZM53.4309 24.6943C53.7506 26.0016 53.5386 27.8466 52.3978 28.7359C52.4372 28.0431 52.313 25.7776 53.4309 24.6943ZM53.9945 27.8263C54.0657 29.2632 53.4521 31.1153 52.1312 31.6695C52.3236 30.8981 52.6962 28.7272 53.9945 27.8263ZM53.9915 31.0751C53.8234 32.2051 52.8916 34.3143 51.2782 34.495C51.6857 33.6717 52.4857 31.761 53.9915 31.0751ZM53.3462 34.3089C52.7795 35.745 51.304 37.3564 49.8163 37.0659C50.3935 36.4014 51.6342 34.6956 53.3462 34.3089ZM51.9843 37.4097C51.0116 38.7038 49.2118 39.9574 47.8182 39.2427C48.5589 38.706 50.0769 37.3957 51.9843 37.4097ZM49.9542 40.1265C48.7028 41.1566 46.6865 42.0231 45.4607 41.0066C46.3183 40.5995 47.9392 39.632 49.9542 40.1265ZM47.4863 42.3342C46.0335 43.1066 43.9875 43.6696 42.9025 42.44C43.2099 42.3372 44.0091 42.0413 44.6776 41.9201C45.6033 41.7401 46.6577 41.9535 47.4863 42.3342ZM44.823 44.0957C43.7636 44.476 42.5629 44.7607 41.4451 44.4925C41.0144 44.3896 40.6011 44.1482 40.2568 43.6695C40.4388 43.6271 40.8586 43.5024 41.3434 43.4045C42.2027 43.2309 43.2474 43.077 44.823 44.0957ZM42.1218 45.547C41.7753 45.6369 41.2367 45.7804 40.6303 45.8486C40.0232 45.9173 39.3507 45.9118 38.7163 45.7219C38.3114 45.6007 37.9425 45.3455 37.602 44.8327C37.7382 44.8103 38.1687 44.6828 38.6801 44.5926C39.1914 44.5019 39.7824 44.4456 40.2349 44.5551C40.8689 44.709 41.4947 45.0568 42.1218 45.547Z" fill="#8257E5"/>
<path d="M3.31718 21.6518C-0.0581908 29.9021 1.85827 37.6204 11.6466 42.3087C12.6169 42.773 13.5721 43.1857 14.4796 43.5734C17.9259 45.0431 20.3455 46.0362 21.7449 47.8947L21.5989 47.9999C20.1415 46.0573 17.2453 44.9352 14.4154 43.7204C13.5081 43.3303 12.5516 42.9145 11.5785 42.4459C1.86737 37.7661 -0.248971 30.038 3.23537 21.6076L3.31718 21.6518ZM5.80329 20.1709C4.94881 21.6289 4.27003 22.6527 2.92487 22.9986C3.35196 22.0448 3.55349 20.8001 5.80329 20.1709ZM4.6807 22.9346C4.03521 24.417 3.50512 25.5903 2.17489 26.1037C2.45822 25.1651 2.44299 23.8106 4.6807 22.9346ZM3.99431 25.7853C3.8822 26.1996 3.51109 27.7931 2.81276 28.6257C2.74902 28.7027 2.67781 28.7783 2.5975 28.8523C2.43553 29.0009 2.2446 29.1435 1.99919 29.2833C2.10667 28.3318 1.86737 26.9049 3.99431 25.7853ZM3.82324 28.629C3.655 30.4219 3.51871 31.5597 2.4839 32.4194C2.47793 32.3583 2.45673 32.2312 2.42941 32.0634C2.41433 31.9796 2.40523 31.8841 2.39313 31.7821C2.38851 31.731 2.38253 31.6779 2.37641 31.6235C2.37179 31.5692 2.37029 31.5127 2.36731 31.4558C2.34148 30.9988 2.38254 30.4707 2.55973 30.0839C2.80664 29.5411 3.24597 29.0464 3.82324 28.629ZM4.22764 31.3681C4.31855 32.4129 4.58516 33.9649 3.89892 35.0273C3.83234 35.1311 3.75502 35.2382 3.6656 35.3493C3.61559 35.1999 3.02175 33.963 3.24448 33.0304C3.38226 32.4476 3.7277 31.8795 4.22764 31.3681ZM5.20482 33.8785C5.88196 35.9007 6.09558 36.7901 5.53966 37.8791C5.50786 37.8246 5.42755 37.7179 5.32455 37.5753C5.22602 37.4283 5.10033 37.2487 4.98971 37.0408C4.46096 36.0882 4.35035 35.1607 5.20482 33.8785ZM6.73793 35.9959C7.7908 37.6914 8.36806 38.626 7.95142 39.9165C7.26668 39.1735 5.87136 38.3035 6.73793 35.9959ZM8.78471 37.7365C10.0145 39.0321 11.012 40.0557 10.6853 41.5309C10.5835 41.4462 10.2247 41.2094 9.85131 40.8852C9.05132 40.1932 8.51346 39.4053 8.78471 37.7365ZM11.2428 39.1575C12.6875 40.3017 13.8805 41.3369 13.5844 42.8708C13.4758 42.7891 13.0935 42.5684 12.6863 42.2651C11.8072 41.611 11.2017 40.914 11.2428 39.1575ZM13.9937 40.3623C15.4269 41.3334 16.9387 42.4689 16.5489 44.1192C15.4971 43.297 14.1137 42.9823 13.9937 40.3623ZM5.71685 17.2593C4.04283 18.3578 3.26269 20.4603 3.43078 21.2313C4.75788 20.1328 5.46696 17.852 5.71685 17.2593ZM2.97786 19.0023C2.37642 19.9209 1.94156 21.4704 2.62333 22.9758C2.88845 22.1043 3.70038 20.2318 2.97786 19.0023ZM1.59016 21.7462C1.0947 22.866 0.958405 24.6242 1.87946 25.8111C2.0068 24.8985 2.4839 22.898 1.59016 21.7462ZM0.569083 24.6943C0.249475 26.0016 0.461453 27.8466 1.60225 28.7359C1.56284 28.0431 1.68704 25.7776 0.569083 24.6943ZM0.00555035 27.8263C-0.0656562 29.2632 0.547887 31.1153 1.86887 31.6695C1.67644 30.8981 1.30384 28.7272 0.00555035 27.8263ZM0.00853716 31.0751C0.176626 32.2051 1.10843 34.3143 2.72185 34.495C2.31432 33.6717 1.51447 31.761 0.00853716 31.0751ZM0.653875 34.3089C1.22054 35.745 2.69602 37.3564 4.18375 37.0659C3.60648 36.4014 2.36582 34.6956 0.653875 34.3089ZM2.01575 37.4097C2.98846 38.7038 4.78818 39.9574 6.18201 39.2427C5.44113 38.706 3.9231 37.3957 2.01575 37.4097ZM4.04581 40.1265C5.29723 41.1566 7.3137 42.0231 8.53929 41.0066C7.68168 40.5995 6.0608 39.632 4.04581 40.1265ZM6.51371 42.3342C7.96665 43.1066 10.0125 43.6696 11.0975 42.44C10.7901 42.3372 9.99089 42.0413 9.32241 41.9201C8.39673 41.7401 7.34236 41.9535 6.51371 42.3342ZM9.17701 44.0957C10.2365 44.476 11.4371 44.7607 12.5549 44.4925C12.9856 44.3896 13.399 44.1482 13.7432 43.6695C13.5612 43.6271 13.1414 43.5024 12.6566 43.4045C11.7973 43.2309 10.7527 43.077 9.17701 44.0957ZM11.8782 45.547C12.2247 45.6369 12.7633 45.7804 13.3697 45.8486C13.9768 45.9173 14.6493 45.9118 15.2838 45.7219C15.6886 45.6007 16.0575 45.3455 16.398 44.8327C16.2618 44.8103 15.8313 44.6828 15.3199 44.5926C14.8088 44.5019 14.2176 44.4456 13.7651 44.5551C13.1311 44.709 12.5054 45.0568 11.8782 45.547Z" fill="#8257E5"/>
<path d="M28.0453 31.2752C26.7676 30.7466 26.0136 29.9943 25.9876 28.7366C25.9618 27.4829 27.1099 26.4532 28.7784 25.9204C28.747 25.8503 28.7125 25.7818 28.6748 25.7159C28.4873 25.3885 28.2126 25.1145 27.8785 24.925C25.9828 23.8478 23.4946 25.7223 24.3871 28.5104C24.8275 29.8865 26.303 31.1414 28.0453 31.2752Z" fill="#8257E5"/>
</svg>
