<svg width="63" height="56" viewBox="0 0 63 56" fill="none" xmlns="http://www.w3.org/2000/svg">
<g clip-path="url(#clip0_1041_839)">
<path d="M31.4741 51.2739C26.0368 51.0833 20.4424 48.3617 16.067 44.6352C11.3978 40.6582 8.08352 35.5 7.78292 31.0023C7.78292 20.6684 7.76307 10.3341 7.75488 0H55.2453C55.2351 10.3252 55.217 20.651 55.217 30.9762C55.0529 35.4714 52.0373 40.542 47.4019 44.4898C43.1728 48.0918 37.5772 50.787 31.5646 51.2739L31.5373 51.2762L31.4741 51.2739ZM17.1344 43.3664C21.239 46.8624 26.4449 49.4177 31.465 49.6128C37.0996 49.149 42.3539 46.6114 46.3345 43.2212C50.6294 39.5633 53.4207 34.9446 53.5677 30.9177L53.5943 1.66533H9.40557L9.43221 30.8916C9.70251 34.9362 12.7846 39.6617 17.1344 43.3664Z" fill="white"/>
<path d="M31.4809 48.5624C26.6226 48.392 21.6198 45.9569 17.7051 42.6225C13.531 39.0675 10.5685 34.4622 10.3005 30.4525C10.3005 21.2059 10.2827 11.959 10.2754 2.7124H52.7255C52.7157 11.9525 52.7002 21.1929 52.7002 30.433C52.5539 34.4394 49.8593 38.9643 45.7173 42.4922C41.9333 45.715 36.9269 48.127 31.5489 48.5624H31.4809ZM18.5055 41.6713C22.2168 44.8324 26.9284 47.1428 31.4741 47.3166C36.5692 46.8983 41.3196 44.6049 44.9169 41.5409C48.8034 38.2304 51.3298 34.0445 51.4632 30.3891L51.4874 3.96141H11.5133L11.5375 30.3695C11.7827 34.0397 14.5712 38.3204 18.5055 41.6713Z" fill="white"/>
<path d="M18.2012 36.1618L25.4427 36.1846L24.2656 35.3509C22.8434 34.0873 22.7145 32.7597 23.4876 30.9348C24.0493 29.6086 30.3427 14.514 30.6904 14.0007C30.7048 14.0191 30.7234 14.0257 30.729 14.0586L31.3006 15.3618C32.2846 17.6825 37.3417 29.5875 37.5282 30.9485C37.8243 33.1076 36.8161 35.7546 35.217 36.4505C36.5228 36.4382 39.1733 35.0487 40.2483 33.6365C42.8337 30.2396 40.935 27.3521 39.3564 23.5377L33.0826 8.36133L31.4819 8.36588C31.1592 8.8486 22.9035 28.5771 22.3382 29.9552C21.7983 31.2718 21.106 33.1729 20.3172 34.2916C20.1035 34.5948 19.9261 34.7449 19.6887 34.9867C18.9023 35.7884 18.4939 35.8299 18.2012 36.1618ZM32.72 36.488C32.2932 36.0962 31.2362 35.2094 31.1456 34.3585C31.0188 33.1676 32.5884 33.6367 33.3472 32.7995C33.9884 32.0919 33.9515 30.8709 33.4543 30.0021C33.2355 29.6199 32.9151 29.3006 32.5253 29.0793C30.3137 27.8227 27.4108 30.0097 28.4521 33.2624C28.9658 34.8678 30.6872 36.3321 32.72 36.488Z" fill="white"/>
<path d="M59.1299 25.2603C63.0678 34.8857 60.8319 43.8904 49.4123 49.3601C48.2802 49.9018 47.1658 50.3833 46.1071 50.8355C42.0864 52.5503 39.2634 53.7089 37.6309 55.8771L37.8012 55.9998C39.5015 53.7334 42.8804 52.4243 46.1819 51.007C47.2405 50.552 48.3563 50.0668 49.4917 49.5201C60.8213 44.0603 63.2904 35.0443 59.2253 25.2088L59.1299 25.2603ZM56.2296 23.5326C57.2263 25.2337 58.0182 26.428 59.5877 26.8316C59.0893 25.7189 58.8542 24.2667 56.2296 23.5326ZM57.5393 26.757C58.2922 28.4864 58.9108 29.8552 60.4625 30.4542C60.132 29.3592 60.1497 27.779 57.5393 26.757ZM58.3399 30.0827C58.4707 30.5662 58.9036 32.4252 59.7183 33.3966C59.7927 33.4865 59.8758 33.5746 59.9695 33.6609C60.1586 33.8343 60.3812 34.0007 60.6675 34.1638C60.5421 33.0537 60.8213 31.389 58.3399 30.0827ZM58.5395 33.4005C58.7357 35.4921 58.8947 36.8196 60.102 37.8225C60.109 37.7512 60.1337 37.603 60.1656 37.4072C60.1832 37.3095 60.1938 37.1981 60.2079 37.079C60.2133 37.0194 60.2205 36.9574 60.2274 36.894C60.2328 36.8306 60.2346 36.7648 60.238 36.6984C60.2682 36.1652 60.2205 35.549 60.0136 35.0978C59.7255 34.4645 59.2129 33.8874 58.5395 33.4005ZM58.0677 36.5961C57.9616 37.815 57.6505 39.6257 58.4512 40.865C58.5288 40.9862 58.6191 41.1111 58.7234 41.2407C58.7817 41.0665 59.4745 39.6234 59.2147 38.5354C59.0539 37.8554 58.6509 37.1927 58.0677 36.5961ZM56.9276 39.5248C56.1376 41.8841 55.8884 42.9217 56.537 44.1922C56.5741 44.1286 56.6678 44.0041 56.7879 43.8377C56.9029 43.6662 57.0495 43.4568 57.1786 43.2142C57.7955 42.1028 57.9245 41.0208 56.9276 39.5248ZM55.139 41.9951C53.9106 43.9733 53.2372 45.0636 53.7232 46.5692C54.5221 45.7024 56.15 44.6874 55.139 41.9951ZM52.7511 44.0258C51.3164 45.5374 50.1526 46.7316 50.5337 48.4526C50.6525 48.3538 51.0713 48.0776 51.5067 47.6993C52.4402 46.892 53.0675 45.9728 52.7511 44.0258ZM49.8834 45.6836C48.1978 47.0186 46.8061 48.2263 47.1515 50.0158C47.2781 49.9205 47.7241 49.6631 48.1992 49.3093C49.225 48.5461 49.9313 47.7329 49.8834 45.6836ZM46.6739 47.0892C45.0018 48.2223 43.2381 49.5469 43.6928 51.4724C44.92 50.5131 46.5339 50.146 46.6739 47.0892ZM56.3302 20.1357C58.2833 21.4173 59.1934 23.8703 58.9973 24.7697C57.449 23.4881 56.622 20.8272 56.3302 20.1357ZM59.5257 22.1692C60.2274 23.241 60.7347 25.0487 59.9394 26.805C59.6301 25.7882 58.6828 23.6037 59.5257 22.1692ZM61.1447 25.3705C61.7228 26.6769 61.8818 28.7281 60.8072 30.1129C60.6586 29.0481 60.102 26.7142 61.1447 25.3705ZM62.336 28.8099C62.7089 30.3351 62.4615 32.4876 61.1306 33.5252C61.1766 32.7168 61.0317 30.0738 62.336 28.8099ZM62.9934 32.4639C63.0765 34.1403 62.3607 36.3011 60.8196 36.9476C61.0441 36.0477 61.4788 33.515 62.9934 32.4639ZM62.9899 36.2542C62.7938 37.5726 61.7067 40.0333 59.8244 40.2441C60.2999 39.2836 61.2332 37.0545 62.9899 36.2542ZM62.2371 40.0269C61.5759 41.7024 59.8545 43.5823 58.1189 43.2434C58.7923 42.4682 60.2398 40.4781 62.2371 40.0269ZM60.6482 43.6445C59.5134 45.1543 57.4137 46.6168 55.7877 45.7831C56.6519 45.1569 58.423 43.6282 60.6482 43.6445ZM58.2798 46.8142C56.8198 48.0159 54.4674 49.0269 53.0374 47.841C54.038 47.366 55.929 46.2373 58.2798 46.8142ZM55.4006 49.3898C53.7057 50.291 51.3186 50.9478 50.0528 49.5133C50.4114 49.3933 51.3439 49.0481 52.1238 48.9068C53.2037 48.6968 54.4338 48.9456 55.4006 49.3898ZM52.2934 51.4449C51.0574 51.8885 49.6566 52.2208 48.3525 51.9078C47.85 51.7878 47.3678 51.5062 46.9662 50.9476C47.1785 50.8982 47.6682 50.7527 48.2339 50.6385C49.2364 50.436 50.4551 50.2565 52.2934 51.4449ZM49.142 53.1381C48.7377 53.243 48.1094 53.4104 47.4019 53.4899C46.6936 53.5702 45.909 53.5637 45.1689 53.3421C44.6965 53.2008 44.2662 52.903 43.8689 52.3047C44.0278 52.2786 44.53 52.1299 45.1267 52.0246C45.7232 51.9188 46.4127 51.8532 46.9406 51.9808C47.6802 52.1604 48.4103 52.5662 49.142 53.1381Z" fill="white"/>
<path d="M3.87004 25.2603C-0.0678892 34.8857 2.16798 43.8904 13.5876 49.3601C14.7197 49.9018 15.8341 50.3833 16.8929 50.8355C20.9135 52.5503 23.7365 53.7089 25.369 55.8771L25.1987 55.9998C23.4984 53.7334 20.1195 52.4243 16.818 51.007C15.7594 50.552 14.6436 50.0668 13.5082 49.5201C2.1786 44.0603 -0.290466 35.0443 3.7746 25.2088L3.87004 25.2603ZM6.7705 23.5326C5.77361 25.2337 4.9817 26.428 3.41235 26.8316C3.91062 25.7189 4.14574 24.2667 6.7705 23.5326ZM5.46082 26.757C4.70775 28.4864 4.08931 29.8552 2.53737 30.4542C2.86793 29.3592 2.85016 27.779 5.46082 26.757ZM4.66003 30.0827C4.52924 30.5662 4.09628 32.4252 3.28156 33.3966C3.20719 33.4865 3.12412 33.5746 3.03042 33.6609C2.84145 33.8343 2.6187 34.0007 2.33238 34.1638C2.45778 33.0537 2.1786 31.389 4.66003 30.0827ZM4.46044 33.4005C4.26416 35.4921 4.10516 36.8196 2.89788 37.8225C2.89091 37.7512 2.86618 37.603 2.83431 37.4072C2.81672 37.3095 2.8061 37.1981 2.79199 37.079C2.78659 37.0194 2.77962 36.9574 2.77248 36.894C2.76708 36.8306 2.76534 36.7648 2.76186 36.6984C2.73173 36.1652 2.77963 35.549 2.98635 35.0978C3.27441 34.4645 3.78697 33.8874 4.46044 33.4005ZM4.93224 36.5961C5.03831 37.815 5.34936 39.6257 4.54874 40.865C4.47107 40.9862 4.38085 41.1111 4.27653 41.2407C4.21819 41.0665 3.52538 39.6234 3.78523 38.5354C3.94598 37.8554 4.34898 37.1927 4.93224 36.5961ZM6.07229 39.5248C6.86228 41.8841 7.11151 42.9217 6.46294 44.1922C6.42584 44.1286 6.33214 44.0041 6.21197 43.8377C6.09703 43.6662 5.95038 43.4568 5.82133 43.2142C5.20445 42.1028 5.0754 41.0208 6.07229 39.5248ZM7.86092 41.9951C9.08927 43.9733 9.76274 45.0636 9.27666 46.5692C8.47779 45.7024 6.84992 44.6874 7.86092 41.9951ZM10.2488 44.0258C11.6836 45.5374 12.8473 46.7316 12.4662 48.4526C12.3475 48.3538 11.9288 48.0776 11.4932 47.6993C10.5599 46.892 9.93238 45.9728 10.2488 44.0258ZM13.1165 45.6836C14.8021 47.0186 16.194 48.2263 15.8484 50.0158C15.7218 49.9205 15.2758 49.6631 14.8007 49.3093C13.775 48.5461 13.0687 47.7329 13.1165 45.6836ZM16.326 47.0892C17.9981 48.2223 19.7618 49.5469 19.3071 51.4724C18.0799 50.5131 16.466 50.146 16.326 47.0892ZM6.66966 20.1357C4.71663 21.4173 3.80647 23.8703 4.00258 24.7697C5.55086 23.4881 6.37812 20.8272 6.66966 20.1357ZM3.47418 22.1692C2.77248 23.241 2.26516 25.0487 3.06055 26.805C3.36985 25.7882 4.31711 23.6037 3.47418 22.1692ZM1.85518 25.3705C1.27715 26.6769 1.11814 28.7281 2.19271 30.1129C2.34127 29.0481 2.89788 26.7142 1.85518 25.3705ZM0.66393 28.8099C0.291054 30.3351 0.538362 32.4876 1.86929 33.5252C1.82331 32.7168 1.96821 30.0738 0.66393 28.8099ZM0.00647541 32.4639C-0.0765989 34.1403 0.639201 36.3011 2.18034 36.9476C1.95585 36.0477 1.52114 33.515 0.00647541 32.4639ZM0.00996002 36.2542C0.206064 37.5726 1.29317 40.0333 3.17549 40.2441C2.70004 39.2836 1.76689 37.0545 0.00996002 36.2542ZM0.762855 40.0269C1.42397 41.7024 3.14536 43.5823 4.88104 43.2434C4.20756 42.4682 2.76012 40.4781 0.762855 40.0269ZM2.35171 43.6445C3.48654 45.1543 5.58621 46.6168 7.21235 45.7831C6.34799 45.1569 4.57695 43.6282 2.35171 43.6445ZM4.72012 46.8142C6.1801 48.0159 8.53265 49.0269 9.96251 47.841C8.96196 47.366 7.07093 46.2373 4.72012 46.8142ZM7.59933 49.3898C9.29443 50.291 11.6813 50.9478 12.9471 49.5133C12.5885 49.3933 11.656 49.0481 10.8762 48.9068C9.79618 48.6968 8.56609 48.9456 7.59933 49.3898ZM10.7065 51.4449C11.9425 51.8885 13.3433 52.2208 14.6474 51.9078C15.1499 51.7878 15.6321 51.5062 16.0337 50.9476C15.8214 50.8982 15.3317 50.7527 14.766 50.6385C13.7635 50.436 12.5448 50.2565 10.7065 51.4449ZM13.8579 53.1381C14.2622 53.243 14.8905 53.4104 15.598 53.4899C16.3063 53.5702 17.0909 53.5637 17.8311 53.3421C18.3034 53.2008 18.7337 52.903 19.131 52.3047C18.9722 52.2786 18.4699 52.1299 17.8732 52.0246C17.2769 51.9188 16.5872 51.8532 16.0593 51.9808C15.3197 52.1604 14.5896 52.5662 13.8579 53.1381Z" fill="white"/>
<path d="M32.7195 36.4878C31.2289 35.871 30.3492 34.9934 30.3189 33.5261C30.2888 32.0634 31.6282 30.8621 33.5748 30.2405C33.5382 30.1587 33.498 30.0788 33.4539 30.0019C33.2352 29.6199 32.9147 29.3003 32.525 29.0792C30.3133 27.8225 27.4104 30.0094 28.4517 33.2622C28.9655 34.8676 30.6869 36.3317 32.7195 36.4878Z" fill="white"/>
</g>
<defs>
<clipPath id="clip0_1041_839">
<rect width="63" height="56" fill="white"/>
</clipPath>
</defs>
</svg>
