<svg width="275" height="48" viewBox="0 0 275 48" fill="none" xmlns="http://www.w3.org/2000/svg">
<path d="M7.72099 43.5354L6.86225 40.6784H2.55203L1.69329 43.5354H0.10792L3.75757 32.1571H5.73928L9.37241 43.5354H7.72099ZM2.93186 39.4068H6.48242L4.71539 33.4617L2.93186 39.4068ZM13.505 32.1571C15.2225 32.1571 16.5986 32.5589 17.6335 33.3626C18.6794 34.1553 19.2024 35.6306 19.2024 37.7884C19.2024 39.8913 18.6794 41.3775 17.6335 42.2473C16.5986 43.106 15.3381 43.5354 13.8518 43.5354H11.1269V32.1571H13.505ZM12.6958 33.4122V42.2968H13.9674C15.0243 42.2968 15.883 41.9721 16.5436 41.3225C17.2042 40.6729 17.5344 39.4949 17.5344 37.7884C17.5344 36.5884 17.3638 35.6691 17.0225 35.0306C16.6812 34.381 16.2463 33.9516 15.7179 33.7425C15.1894 33.5223 14.5674 33.4122 13.8518 33.4122H12.6958ZM29.1055 32.1571L25.4724 43.5354H23.7879L20.1218 32.1571H21.8062L24.6632 41.8344L27.5201 32.1571H29.1055ZM34.8323 31.9589C35.7902 31.9589 36.6269 32.1901 37.3425 32.6525C38.0691 33.1039 38.6306 33.77 39.027 34.6507C39.4343 35.5315 39.638 36.5994 39.638 37.8545C39.638 39.0876 39.4343 40.1445 39.027 41.0252C38.6306 41.906 38.0691 42.5776 37.3425 43.04C36.6269 43.5024 35.7902 43.7336 34.8323 43.7336C33.8745 43.7336 33.0323 43.5079 32.3057 43.0565C31.59 42.6051 31.0286 41.939 30.6212 41.0583C30.2249 40.1775 30.0267 39.1151 30.0267 37.871C30.0267 36.649 30.2249 35.592 30.6212 34.7003C31.0286 33.8085 31.5955 33.1314 32.3222 32.669C33.0488 32.1956 33.8855 31.9589 34.8323 31.9589ZM34.8323 33.247C33.8415 33.247 33.0708 33.6214 32.5203 34.37C31.9699 35.1186 31.6946 36.2856 31.6946 37.871C31.6946 39.4454 31.9699 40.6014 32.5203 41.339C33.0818 42.0766 33.8525 42.4455 34.8323 42.4455C36.9241 42.4455 37.97 40.9151 37.97 37.8545C37.97 34.7829 36.9241 33.247 34.8323 33.247ZM46.1839 31.9589C46.8665 31.9589 47.439 32.047 47.9014 32.2231C48.3748 32.3993 48.8537 32.6855 49.3382 33.0819L48.4794 34.0893C47.7858 33.5278 47.0537 33.247 46.283 33.247C45.3362 33.247 44.5711 33.6103 43.9876 34.337C43.4151 35.0636 43.1288 36.2306 43.1288 37.838C43.1288 39.4013 43.4151 40.5573 43.9876 41.306C44.56 42.0436 45.3197 42.4124 46.2665 42.4124C46.7509 42.4124 47.1748 42.3299 47.5381 42.1647C47.9014 41.9996 48.2868 41.7684 48.6941 41.4711L49.4703 42.462C49.118 42.8253 48.6666 43.128 48.1161 43.3703C47.5656 43.6125 46.9326 43.7336 46.217 43.7336C45.2922 43.7336 44.4665 43.5079 43.7398 43.0565C43.0242 42.5941 42.4627 41.9225 42.0554 41.0417C41.659 40.15 41.4609 39.0821 41.4609 37.838C41.4609 36.5939 41.6701 35.5315 42.0884 34.6507C42.5068 33.759 43.0738 33.0874 43.7894 32.636C44.505 32.1846 45.3032 31.9589 46.1839 31.9589ZM57.5056 43.5354L56.6469 40.6784H52.3367L51.4779 43.5354H49.8926L53.5422 32.1571H55.5239L59.157 43.5354H57.5056ZM52.7165 39.4068H56.2671L54.5 33.4617L52.7165 39.4068ZM64.7302 31.9589C65.4128 31.9589 65.9853 32.047 66.4477 32.2231C66.9211 32.3993 67.4 32.6855 67.8844 33.0819L67.0257 34.0893C66.3321 33.5278 65.6 33.247 64.8293 33.247C63.8825 33.247 63.1173 33.6103 62.5338 34.337C61.9613 35.0636 61.6751 36.2306 61.6751 37.838C61.6751 39.4013 61.9613 40.5573 62.5338 41.306C63.1063 42.0436 63.866 42.4124 64.8128 42.4124C65.2972 42.4124 65.7211 42.3299 66.0844 42.1647C66.4477 41.9996 66.833 41.7684 67.2404 41.4711L68.0165 42.462C67.6642 42.8253 67.2129 43.128 66.6624 43.3703C66.1119 43.6125 65.4789 43.7336 64.7632 43.7336C63.8384 43.7336 63.0127 43.5079 62.2861 43.0565C61.5705 42.5941 61.009 41.9225 60.6017 41.0417C60.2053 40.15 60.0071 39.0821 60.0071 37.838C60.0071 36.5939 60.2163 35.5315 60.6347 34.6507C61.053 33.759 61.62 33.0874 62.3356 32.636C63.0513 32.1846 63.8495 31.9589 64.7302 31.9589ZM71.56 32.1571V43.5354H69.9912V32.1571H71.56ZM80.9223 43.5354L80.0636 40.6784H75.7533L74.8946 43.5354H73.3092L76.9589 32.1571H78.9406L82.5737 43.5354H80.9223ZM76.1332 39.4068H79.6837L77.9167 33.4617L76.1332 39.4068ZM92.0346 31.9589C92.6291 31.9589 93.152 32.069 93.6034 32.2892C94.0658 32.4984 94.4236 32.7956 94.6769 33.181C94.9301 33.5663 95.0567 33.9957 95.0567 34.4691C95.0567 35.1186 94.8475 35.6801 94.4291 36.1535C94.0218 36.6159 93.4548 37.0618 92.7282 37.4912L95.6347 40.2326C96.0751 39.3408 96.4054 38.4105 96.6255 37.4416L98.0458 37.8545C97.6604 39.1316 97.1705 40.216 96.576 41.1078L98.4256 42.8418L97.3357 43.7336L95.7338 42.1812C95.2604 42.6987 94.7264 43.0895 94.1319 43.3537C93.5374 43.607 92.8548 43.7336 92.0841 43.7336C91.3575 43.7336 90.7134 43.607 90.152 43.3537C89.6015 43.1005 89.1666 42.7427 88.8473 42.2803C88.5391 41.8069 88.3849 41.2619 88.3849 40.6454C88.3849 39.9628 88.5776 39.3683 88.9629 38.8619C89.3483 38.3444 89.9208 37.8435 90.6804 37.3591C90.1299 36.8306 89.7226 36.3572 89.4584 35.9388C89.2051 35.5205 89.0785 35.0471 89.0785 34.5186C89.0785 33.77 89.3373 33.159 89.8547 32.6855C90.3832 32.2011 91.1098 31.9589 92.0346 31.9589ZM92.0511 33.0819C91.5887 33.0819 91.2254 33.214 90.9612 33.4782C90.6969 33.7425 90.5648 34.0837 90.5648 34.5021C90.5648 34.8985 90.6694 35.2563 90.8786 35.5755C91.0878 35.8838 91.418 36.2526 91.8694 36.682C92.4309 36.3407 92.8548 36.0049 93.141 35.6746C93.4273 35.3333 93.5704 34.959 93.5704 34.5517C93.5704 34.0893 93.4328 33.7314 93.1575 33.4782C92.8823 33.214 92.5135 33.0819 92.0511 33.0819ZM91.5557 38.1848C91.0052 38.5481 90.5978 38.9224 90.3336 39.3078C90.0694 39.6821 89.9373 40.1114 89.9373 40.5959C89.9373 41.2014 90.1465 41.6748 90.5648 42.0161C90.9942 42.3574 91.5557 42.528 92.2493 42.528C92.7667 42.528 93.2346 42.4289 93.653 42.2308C94.0713 42.0326 94.4732 41.7353 94.8585 41.339L91.5557 38.1848ZM109.08 31.9589C109.763 31.9589 110.335 32.047 110.797 32.2231C111.271 32.3993 111.75 32.6855 112.234 33.0819L111.375 34.0893C110.682 33.5278 109.95 33.247 109.179 33.247C108.232 33.247 107.467 33.6103 106.884 34.337C106.311 35.0636 106.025 36.2306 106.025 37.838C106.025 39.4013 106.311 40.5573 106.884 41.306C107.456 42.0436 108.216 42.4124 109.163 42.4124C109.647 42.4124 110.071 42.3299 110.434 42.1647C110.797 41.9996 111.183 41.7684 111.59 41.4711L112.366 42.462C112.014 42.8253 111.563 43.128 111.012 43.3703C110.462 43.6125 109.829 43.7336 109.113 43.7336C108.188 43.7336 107.363 43.5079 106.636 43.0565C105.92 42.5941 105.359 41.9225 104.951 41.0417C104.555 40.15 104.357 39.0821 104.357 37.838C104.357 36.5939 104.566 35.5315 104.984 34.6507C105.403 33.759 105.97 33.0874 106.685 32.636C107.401 32.1846 108.199 31.9589 109.08 31.9589ZM118.081 31.9589C119.039 31.9589 119.875 32.1901 120.591 32.6525C121.318 33.1039 121.879 33.77 122.276 34.6507C122.683 35.5315 122.887 36.5994 122.887 37.8545C122.887 39.0876 122.683 40.1445 122.276 41.0252C121.879 41.906 121.318 42.5776 120.591 43.04C119.875 43.5024 119.039 43.7336 118.081 43.7336C117.123 43.7336 116.281 43.5079 115.554 43.0565C114.839 42.6051 114.277 41.939 113.87 41.0583C113.473 40.1775 113.275 39.1151 113.275 37.871C113.275 36.649 113.473 35.592 113.87 34.7003C114.277 33.8085 114.844 33.1314 115.571 32.669C116.297 32.1956 117.134 31.9589 118.081 31.9589ZM118.081 33.247C117.09 33.247 116.319 33.6214 115.769 34.37C115.218 35.1186 114.943 36.2856 114.943 37.871C114.943 39.4454 115.218 40.6014 115.769 41.339C116.33 42.0766 117.101 42.4455 118.081 42.4455C120.173 42.4455 121.219 40.9151 121.219 37.8545C121.219 34.7829 120.173 33.247 118.081 33.247ZM133.429 43.5354H131.332L126.708 33.8746C126.774 34.6342 126.823 35.3388 126.856 35.9884C126.9 36.6269 126.922 37.4031 126.922 38.3169V43.5354H125.453V32.1571H127.5L132.174 41.8344C132.141 41.5482 132.097 41.0473 132.042 40.3316C131.987 39.616 131.959 38.961 131.959 38.3664V32.1571H133.429V43.5354ZM139.533 31.9589C140.293 31.9589 140.942 32.069 141.482 32.2892C142.021 32.4984 142.544 32.8287 143.05 33.2801L142.192 34.2379C141.762 33.8966 141.338 33.6489 140.92 33.4947C140.513 33.3296 140.072 33.247 139.599 33.247C139.004 33.247 138.515 33.3846 138.129 33.6599C137.744 33.9351 137.551 34.337 137.551 34.8654C137.551 35.1957 137.617 35.4764 137.749 35.7076C137.881 35.9278 138.124 36.1315 138.476 36.3187C138.839 36.5058 139.362 36.704 140.045 36.9132C140.76 37.1334 141.355 37.3701 141.828 37.6233C142.302 37.8765 142.682 38.2288 142.968 38.6802C143.265 39.1206 143.414 39.6821 143.414 40.3647C143.414 41.0252 143.249 41.6087 142.918 42.1152C142.599 42.6216 142.131 43.018 141.515 43.3042C140.909 43.5904 140.188 43.7336 139.351 43.7336C137.777 43.7336 136.489 43.2436 135.487 42.2638L136.346 41.306C136.808 41.6803 137.276 41.9665 137.749 42.1647C138.223 42.3519 138.751 42.4455 139.335 42.4455C140.039 42.4455 140.623 42.2748 141.085 41.9335C141.548 41.5812 141.779 41.0748 141.779 40.4142C141.779 40.0399 141.707 39.7316 141.564 39.4894C141.421 39.2362 141.173 39.0105 140.821 38.8123C140.48 38.6142 139.979 38.416 139.318 38.2178C138.151 37.8655 137.298 37.4416 136.759 36.9462C136.219 36.4508 135.949 35.7792 135.949 34.9315C135.949 34.359 136.098 33.847 136.395 33.3957C136.703 32.9443 137.127 32.592 137.667 32.3387C138.217 32.0855 138.839 31.9589 139.533 31.9589ZM153.519 39.8858C153.519 40.6454 153.36 41.317 153.04 41.9005C152.732 42.473 152.275 42.9244 151.67 43.2547C151.075 43.5739 150.359 43.7336 149.523 43.7336C148.257 43.7336 147.277 43.3868 146.583 42.6932C145.901 41.9886 145.559 41.0528 145.559 39.8858V32.1571H147.128V39.7702C147.128 40.6509 147.326 41.3115 147.723 41.7519C148.119 42.1922 148.719 42.4124 149.523 42.4124C150.337 42.4124 150.943 42.1977 151.339 41.7684C151.736 41.328 151.934 40.6619 151.934 39.7702V32.1571H153.519V39.8858ZM158.228 32.1571V42.1647H162.901L162.719 43.5354H156.659V32.1571H158.228ZM170.234 32.1571L170.069 33.4947H166.915V43.5354H165.346V33.4947H162.109V32.1571H170.234ZM175.526 31.9589C176.484 31.9589 177.32 32.1901 178.036 32.6525C178.763 33.1039 179.324 33.77 179.721 34.6507C180.128 35.5315 180.332 36.5994 180.332 37.8545C180.332 39.0876 180.128 40.1445 179.721 41.0252C179.324 41.906 178.763 42.5776 178.036 43.04C177.32 43.5024 176.484 43.7336 175.526 43.7336C174.568 43.7336 173.726 43.5079 172.999 43.0565C172.284 42.6051 171.722 41.939 171.315 41.0583C170.918 40.1775 170.72 39.1151 170.72 37.871C170.72 36.649 170.918 35.592 171.315 34.7003C171.722 33.8085 172.289 33.1314 173.016 32.669C173.742 32.1956 174.579 31.9589 175.526 31.9589ZM175.526 33.247C174.535 33.247 173.764 33.6214 173.214 34.37C172.663 35.1186 172.388 36.2856 172.388 37.871C172.388 39.4454 172.663 40.6014 173.214 41.339C173.775 42.0766 174.546 42.4455 175.526 42.4455C177.618 42.4455 178.664 40.9151 178.664 37.8545C178.664 34.7829 177.618 33.247 175.526 33.247ZM186.234 38.7132H184.466V43.5354H182.898V32.1571H185.887C187.307 32.1571 188.38 32.4268 189.107 32.9663C189.845 33.5058 190.213 34.3094 190.213 35.3774C190.213 36.17 190.01 36.8141 189.602 37.3095C189.195 37.805 188.579 38.1793 187.753 38.4325L190.824 43.5354H188.958L186.234 38.7132ZM186.052 37.5077C186.878 37.5077 187.5 37.3426 187.918 37.0123C188.336 36.671 188.545 36.126 188.545 35.3774C188.545 34.6728 188.331 34.1663 187.901 33.8581C187.483 33.5388 186.806 33.3791 185.87 33.3791H184.466V37.5077H186.052ZM194.465 32.1571V43.5354H192.896V32.1571H194.465ZM203.828 43.5354L202.969 40.6784H198.659L197.8 43.5354H196.215L199.864 32.1571H201.846L205.479 43.5354H203.828ZM199.038 39.4068H202.589L200.822 33.4617L199.038 39.4068ZM213.421 41.95C213.421 43.073 213.173 43.9152 212.677 44.4767C212.193 45.0382 211.45 45.4786 210.448 45.7979L210.035 44.6584C210.542 44.4602 210.921 44.2455 211.175 44.0143C211.428 43.7831 211.604 43.5024 211.703 43.1721C211.802 42.8418 211.852 42.4124 211.852 41.884V32.1571H213.421V41.95ZM224.43 39.8858C224.43 40.6454 224.271 41.317 223.952 41.9005C223.643 42.473 223.186 42.9244 222.581 43.2547C221.986 43.5739 221.271 43.7336 220.434 43.7336C219.168 43.7336 218.188 43.3868 217.494 42.6932C216.812 41.9886 216.471 41.0528 216.471 39.8858V32.1571H218.039V39.7702C218.039 40.6509 218.238 41.3115 218.634 41.7519C219.03 42.1922 219.63 42.4124 220.434 42.4124C221.249 42.4124 221.854 42.1977 222.251 41.7684C222.647 41.328 222.845 40.6619 222.845 39.7702V32.1571H224.43V39.8858ZM230.906 38.7132H229.139V43.5354H227.57V32.1571H230.559C231.979 32.1571 233.053 32.4268 233.779 32.9663C234.517 33.5058 234.886 34.3094 234.886 35.3774C234.886 36.17 234.682 36.8141 234.275 37.3095C233.867 37.805 233.251 38.1793 232.425 38.4325L235.497 43.5354H233.631L230.906 38.7132ZM230.724 37.5077C231.55 37.5077 232.172 37.3426 232.59 37.0123C233.009 36.671 233.218 36.126 233.218 35.3774C233.218 34.6728 233.003 34.1663 232.574 33.8581C232.155 33.5388 231.478 33.3791 230.542 33.3791H229.139V37.5077H230.724ZM239.138 32.1571V43.5354H237.569V32.1571H239.138ZM239.666 28.4909L240.327 29.7625L236.76 31.0671L236.363 30.2579L239.666 28.4909ZM244.817 32.1571C246.535 32.1571 247.911 32.5589 248.946 33.3626C249.992 34.1553 250.515 35.6306 250.515 37.7884C250.515 39.8913 249.992 41.3775 248.946 42.2473C247.911 43.106 246.65 43.5354 245.164 43.5354H242.439V32.1571H244.817ZM244.008 33.4122V42.2968H245.28C246.337 42.2968 247.195 41.9721 247.856 41.3225C248.516 40.6729 248.847 39.4949 248.847 37.7884C248.847 36.5884 248.676 35.6691 248.335 35.0306C247.993 34.381 247.559 33.9516 247.03 33.7425C246.502 33.5223 245.88 33.4122 245.164 33.4122H244.008ZM254.636 32.1571V43.5354H253.067V32.1571H254.636ZM261.917 31.9589C262.6 31.9589 263.172 32.047 263.635 32.2231C264.108 32.3993 264.587 32.6855 265.072 33.0819L264.213 34.0893C263.519 33.5278 262.787 33.247 262.016 33.247C261.07 33.247 260.304 33.6103 259.721 34.337C259.148 35.0636 258.862 36.2306 258.862 37.838C258.862 39.4013 259.148 40.5573 259.721 41.306C260.293 42.0436 261.053 42.4124 262 42.4124C262.484 42.4124 262.908 42.3299 263.272 42.1647C263.635 41.9996 264.02 41.7684 264.428 41.4711L265.204 42.462C264.851 42.8253 264.4 43.128 263.85 43.3703C263.299 43.6125 262.666 43.7336 261.95 43.7336C261.026 43.7336 260.2 43.5079 259.473 43.0565C258.758 42.5941 258.196 41.9225 257.789 41.0417C257.392 40.15 257.194 39.0821 257.194 37.838C257.194 36.5939 257.403 35.5315 257.822 34.6507C258.24 33.759 258.807 33.0874 259.523 32.636C260.238 32.1846 261.037 31.9589 261.917 31.9589ZM273.239 43.5354L272.38 40.6784H268.07L267.211 43.5354H265.626L269.276 32.1571H271.257L274.89 43.5354H273.239ZM268.45 39.4068H272L270.233 33.4617L268.45 39.4068Z" fill="#A8A8AA"/>
<path d="M13.9894 6.2726L23.2819 23.7918L24.5193 24.2708V25.0018H18.2316V24.2708L18.9891 23.7918L17.4742 20.3385H7.09564L5.1766 23.7918L5.88354 24.2708V25.0018H0V24.2708L1.21211 23.7918L10.328 6.2726H13.9894ZM12.0955 10.0033L8.43416 17.4395H15.7571L12.0955 10.0033ZM26.0091 25.0018V24.2708L26.9687 23.7918V7.4826L26.0091 7.00363V6.2726H30.4786L42.3215 20.0108V7.4826L41.3619 7.00363V6.2726H46.7911V7.00363L45.8063 7.4826V25.0018H41.7156L30.4786 11.8687V23.7918L31.4382 24.2708V25.0018H26.0091ZM54.7453 25.0018V24.2708L55.7048 23.8171V9.42364H49.8969L49.1898 10.8602H48.4575L48.6848 6.2726H66.2345L66.487 10.8602H65.7547L65.0227 9.42364H59.2905V23.7918L60.2501 24.2708V25.0018H54.7453ZM79.4917 5.94485C81.1583 5.94485 82.6901 6.20531 84.0875 6.72639C85.4849 7.24731 86.6926 7.95737 87.7109 8.8564C88.7295 9.75543 89.5292 10.81 90.1099 12.02C90.6907 13.23 90.9812 14.5238 90.9812 15.9018C90.9812 17.3303 90.6907 18.6328 90.1099 19.809C89.5292 20.9855 88.7295 21.9938 87.7109 22.8339C86.6926 23.6743 85.4849 24.3213 84.0875 24.7749C82.6901 25.2287 81.1583 25.4556 79.4917 25.4556C77.8756 25.4556 76.369 25.2287 74.9718 24.7749C73.5744 24.3213 72.3625 23.6743 71.3355 22.8339C70.3085 21.9938 69.5005 20.9855 68.9113 19.809C68.3222 18.6328 68.0275 17.3303 68.0275 15.9018C68.0275 14.5238 68.3011 13.23 68.8484 12.02C69.3953 10.81 70.1697 9.75543 71.1714 8.8564C72.173 7.95737 73.3808 7.24731 74.7949 6.72639C76.2091 6.20531 77.7746 5.94485 79.4917 5.94485ZM79.4917 9.27227C78.3807 9.27227 77.358 9.44446 76.4236 9.789C75.4894 10.1337 74.6813 10.6043 73.9996 11.2007C73.3177 11.7973 72.7833 12.499 72.3961 13.3054C72.0088 14.1123 71.8153 14.9776 71.8153 15.9018C71.8153 16.7758 72.0088 17.595 72.3961 18.3597C72.7833 19.1243 73.3219 19.7881 74.0122 20.3511C74.7023 20.914 75.5146 21.3592 76.449 21.687C77.3832 22.0149 78.3973 22.1787 79.4917 22.1787C80.6027 22.1787 81.6213 22.0233 82.5471 21.7123C83.473 21.4013 84.277 20.9729 84.9587 20.4266C85.6404 19.8805 86.175 19.225 86.562 18.4606C86.9495 17.696 87.143 16.8429 87.143 15.9018C87.143 14.9776 86.9537 14.1123 86.5748 13.3054C86.196 12.499 85.6658 11.7973 84.9839 11.2007C84.3022 10.6043 83.4983 10.1337 82.5724 9.789C81.6465 9.44446 80.6196 9.27227 79.4917 9.27227ZM80.3755 1.23104L84.1379 4.58363L83.1027 5.36517L79.5423 2.99568L76.0069 5.34L74.8706 4.68434L78.6836 1.23104H80.3755ZM93.1781 25.0018V24.2708L94.1377 23.7918V7.4826L93.1781 7.00363V6.2726H97.6477L109.491 20.0108V7.4826L108.531 7.00363V6.2726H113.96V7.00363L112.975 7.4826V25.0018H108.885L97.6477 11.8687V23.7918L98.6071 24.2708V25.0018H93.1781ZM116.081 25.0018V24.2708L117.041 23.7918V7.4826L116.081 7.00363V6.2726H121.586V7.00363L120.626 7.4826V23.7918L121.586 24.2708V25.0018H116.081ZM134.969 5.94485C136.636 5.94485 138.168 6.20531 139.565 6.72639C140.962 7.24731 142.17 7.95737 143.189 8.8564C144.207 9.75543 145.007 10.81 145.587 12.02C146.168 13.23 146.459 14.5238 146.459 15.9018C146.459 17.3303 146.168 18.6328 145.587 19.809C145.007 20.9855 144.207 21.9938 143.189 22.8339C142.17 23.6743 140.962 24.3213 139.565 24.7749C138.168 25.2287 136.636 25.4556 134.969 25.4556C133.353 25.4556 131.846 25.2287 130.449 24.7749C129.052 24.3213 127.84 23.6743 126.813 22.8339C125.786 21.9938 124.978 20.9855 124.389 19.809C123.8 18.6328 123.505 17.3303 123.505 15.9018C123.505 14.5238 123.779 13.23 124.326 12.02C124.873 10.81 125.647 9.75543 126.649 8.8564C127.651 7.95737 128.858 7.24731 130.273 6.72639C131.687 6.20531 133.252 5.94485 134.969 5.94485ZM134.969 9.27227C133.858 9.27227 132.836 9.44446 131.901 9.789C130.967 10.1337 130.159 10.6043 129.477 11.2007C128.795 11.7973 128.261 12.499 127.874 13.3054C127.486 14.1123 127.293 14.9776 127.293 15.9018C127.293 16.7758 127.486 17.595 127.874 18.3597C128.261 19.1243 128.8 19.7881 129.49 20.3511C130.18 20.914 130.992 21.3592 131.927 21.687C132.861 22.0149 133.875 22.1787 134.969 22.1787C136.08 22.1787 137.099 22.0233 138.025 21.7123C138.951 21.4013 139.754 20.9729 140.436 20.4266C141.118 19.8805 141.652 19.225 142.04 18.4606C142.427 17.696 142.62 16.8429 142.62 15.9018C142.62 14.9776 142.431 14.1123 142.052 13.3054C141.673 12.499 141.143 11.7973 140.462 11.2007C139.78 10.6043 138.976 10.1337 138.05 9.789C137.124 9.44446 136.097 9.27227 134.969 9.27227ZM162.039 19.4561L162.519 20.0108L162.165 21.0444C162.721 21.4307 163.28 21.7123 163.844 21.8887C164.408 22.0651 164.943 22.1534 165.448 22.1534C165.768 22.1534 166.146 22.0945 166.584 21.977C167.022 21.8592 167.438 21.6828 167.834 21.4476C168.23 21.2124 168.562 20.9098 168.831 20.5444C169.101 20.1746 169.235 19.7292 169.235 19.2082V7.4826L168.276 7.00363V6.2726H173.806V7.00363L172.821 7.4826V18.2966C172.821 19.6243 172.619 20.7418 172.215 21.6492C171.811 22.5566 171.277 23.2919 170.612 23.8549C169.947 24.4178 169.185 24.8212 168.326 25.0649C167.468 25.3086 166.576 25.4303 165.65 25.4303C165.01 25.4303 164.417 25.3841 163.87 25.2918C163.323 25.1993 162.805 25.0649 162.317 24.8968C161.828 24.7288 161.357 24.527 160.903 24.3003C160.448 24.0692 159.977 23.8129 159.488 23.5272L158.504 23.8044L157.999 23.2456L162.039 19.4561ZM191.104 6.2726H196.633V7.00363L195.674 7.4826V17.3135C195.674 18.8429 195.379 20.1282 194.79 21.1703C194.201 22.2123 193.443 23.0482 192.518 23.6785C191.592 24.3087 190.577 24.7581 189.475 25.0271C188.372 25.296 187.299 25.4303 186.255 25.4303C185.211 25.4303 184.134 25.296 183.023 25.0271C181.912 24.7581 180.897 24.3087 179.98 23.6785C179.063 23.0482 178.309 22.2123 177.72 21.1703C177.131 20.1282 176.836 18.8429 176.836 17.3135V7.4826L175.852 7.00363V6.2726H181.381V7.00363L180.422 7.4826V17.1202C180.422 17.9101 180.561 18.6118 180.839 19.2334C181.117 19.8553 181.512 20.3845 182.025 20.8217C182.539 21.2543 183.153 21.5861 183.869 21.813C184.584 22.0399 185.38 22.1534 186.255 22.1534C187.13 22.1534 187.922 22.0399 188.629 21.813C189.336 21.5861 189.946 21.2543 190.459 20.8217C190.973 20.3845 191.373 19.8553 191.659 19.2334C191.945 18.6118 192.088 17.9101 192.088 17.1202V7.4826L191.104 7.00363V6.2726ZM190.119 2.16379L183.25 5.54157L182.341 4.43228L188.477 0.5L190.119 2.16379ZM198.906 25.0018V24.2708L199.866 23.7918V7.4826L198.906 7.00363V6.2726H203.376L215.219 20.0108V7.4826L214.259 7.00363V6.2726H219.688V7.00363L218.703 7.4826V25.0018H214.613L203.376 11.8687V23.7918L204.335 24.2708V25.0018H198.906ZM221.809 25.0018V24.2708L222.769 23.7918V7.4826L221.809 7.00363V6.2726H227.314V7.00363L226.354 7.4826V23.7918L227.314 24.2708V25.0018H221.809ZM240.697 5.94485C242.364 5.94485 243.896 6.20531 245.293 6.72639C246.69 7.24731 247.898 7.95737 248.917 8.8564C249.935 9.75543 250.735 10.81 251.316 12.02C251.896 13.23 252.187 14.5238 252.187 15.9018C252.187 17.3303 251.896 18.6328 251.316 19.809C250.735 20.9855 249.935 21.9938 248.917 22.8339C247.898 23.6743 246.69 24.3213 245.293 24.7749C243.896 25.2287 242.364 25.4556 240.697 25.4556C239.081 25.4556 237.574 25.2287 236.177 24.7749C234.78 24.3213 233.568 23.6743 232.541 22.8339C231.514 21.9938 230.706 20.9855 230.117 19.809C229.528 18.6328 229.233 17.3303 229.233 15.9018C229.233 14.5238 229.507 13.23 230.054 12.02C230.601 10.81 231.375 9.75543 232.377 8.8564C233.379 7.95737 234.586 7.24731 236.001 6.72639C237.415 6.20531 238.98 5.94485 240.697 5.94485ZM240.697 9.27227C239.586 9.27227 238.563 9.44446 237.629 9.789C236.695 10.1337 235.887 10.6043 235.205 11.2007C234.523 11.7973 233.989 12.499 233.602 13.3054C233.214 14.1123 233.021 14.9776 233.021 15.9018C233.021 16.7758 233.214 17.595 233.602 18.3597C233.989 19.1243 234.528 19.7881 235.218 20.3511C235.908 20.914 236.72 21.3592 237.654 21.687C238.589 22.0149 239.603 22.1787 240.697 22.1787C241.808 22.1787 242.827 22.0233 243.753 21.7123C244.678 21.4013 245.482 20.9729 246.164 20.4266C246.846 19.8805 247.381 19.225 247.768 18.4606C248.155 17.696 248.348 16.8429 248.348 15.9018C248.348 14.9776 248.159 14.1123 247.78 13.3054C247.402 12.499 246.871 11.7973 246.189 11.2007C245.508 10.6043 244.704 10.1337 243.778 9.789C242.852 9.44446 241.825 9.27227 240.697 9.27227ZM254.384 25.0018V24.2708L255.343 23.7918V7.4826L254.384 7.00363V6.2726H265.873C266.951 6.2726 267.914 6.41542 268.764 6.70106C269.614 6.98685 270.33 7.38594 270.911 7.89847C271.491 8.41101 271.938 9.03698 272.249 9.77641C272.561 10.5158 272.716 11.3476 272.716 12.2721C272.716 13.5996 272.354 14.7129 271.63 15.612C270.906 16.5111 269.964 17.1707 268.802 17.5908L273.423 23.7918L274.736 24.2708V25.0018H268.524V24.2708L269.13 23.7666L265.545 18.5739H258.929V23.7918L259.914 24.2708V25.0018H254.384ZM265.191 15.2464C265.764 15.2464 266.294 15.1875 266.782 15.0701C267.27 14.9524 267.695 14.7675 268.057 14.5154C268.419 14.2633 268.701 13.9524 268.903 13.5828C269.105 13.2132 269.206 12.7761 269.206 12.2721C269.206 11.8015 269.105 11.3897 268.903 11.0369C268.701 10.6838 268.419 10.3855 268.057 10.1418C267.695 9.8984 267.27 9.71752 266.782 9.60002C266.294 9.48223 265.764 9.42364 265.191 9.42364H258.929V15.2464H265.191Z" fill="#8257E5"/>
</svg>
