<svg width="32" height="32" viewBox="0 0 32 32" fill="none" xmlns="http://www.w3.org/2000/svg">
<path fill-rule="evenodd" clip-rule="evenodd" d="M24.2719 7.68278C22.0772 5.48678 19.1585 4.27611 16.0492 4.27478C9.63986 4.27478 4.4252 9.48678 4.42386 15.8934C4.4212 17.9321 4.95586 19.9361 5.97453 21.7028L4.3252 27.7241L10.4879 26.1081C12.1932 27.0361 14.1025 27.5228 16.0439 27.5228H16.0492C22.4559 27.5228 27.6705 22.3094 27.6732 15.9028C27.6745 12.7988 26.4665 9.88011 24.2719 7.68278Z" stroke="#996DFF" stroke-width="2" stroke-linecap="round" stroke-linejoin="round"/>
<path d="M17.46 18.08L18.0013 17.5427C18.4986 17.0493 19.2853 16.9867 19.8586 17.3893C20.4133 17.7787 20.9146 18.128 21.3813 18.4533C22.1226 18.968 22.212 20.024 21.5733 20.6613L21.0946 21.14" stroke="#996DFF" stroke-width="2" stroke-linecap="round" stroke-linejoin="round"/>
<path d="M10.8604 10.9054L11.339 10.4267C11.9764 9.7894 13.0324 9.87873 13.547 10.6187C13.871 11.0854 14.2204 11.5867 14.611 12.1414C15.0137 12.7147 14.9524 13.5014 14.4577 13.9987L13.9204 14.5401" stroke="#996DFF" stroke-width="2" stroke-linecap="round" stroke-linejoin="round"/>
<path d="M21.094 21.1399C19.1193 23.1052 15.8007 21.4359 13.1807 18.8146" stroke="#996DFF" stroke-width="2" stroke-linecap="round" stroke-linejoin="round"/>
<path d="M13.1841 18.8187C10.5641 16.1974 8.89476 12.8801 10.8601 10.9054" stroke="#996DFF" stroke-width="2" stroke-linecap="round" stroke-linejoin="round"/>
<path d="M13.9209 14.54C14.3462 15.2107 14.8916 15.8747 15.5076 16.4907L15.5102 16.4934C16.1262 17.1094 16.7902 17.6547 17.4609 18.08" stroke="#996DFF" stroke-width="2" stroke-linecap="round" stroke-linejoin="round"/>
</svg>
